<?xml version="1.0"?>
<svg xmlns="http://www.w3.org/2000/svg" viewBox="0 0 50 50">
    <path style="line-height:normal;text-indent:0;text-align:start;text-decoration-line:none;text-decoration-style:solid;text-decoration-color:#000;text-transform:none;block-progression:tb;isolation:auto;mix-blend-mode:normal" d="M 10.599609 4 C 5.8620649 4 2 7.8620649 2 12.599609 L 2 31.400391 L 2 38.400391 C 2 43.137935 5.8620649 47 10.599609 47 L 39.400391 47 C 44.137935 47 48 43.137935 48 38.400391 L 48 30.599609 L 48 12.599609 C 48 7.8620649 44.137935 4 39.400391 4 L 10.599609 4 z M 25 13 L 30 18 L 26 18 L 26 31 C 26 31.552 25.553 32 25 32 C 24.447 32 24 31.552 24 31 L 24 18 L 20 18 L 25 13 z M 4 36.902344 C 5.5794631 38.792759 7.9525731 40 10.599609 40 L 39.400391 40 C 42.047427 40 44.420537 38.792759 46 36.902344 L 46 38.400391 C 46 42.056846 43.056846 45 39.400391 45 L 10.599609 45 C 6.9431546 45 4 42.056846 4 38.400391 L 4 36.902344 z" font-weight="400" font-family="sans-serif" white-space="normal" overflow="visible"/>
</svg>
